<svg
  viewBox="0 0 1024 1024" version="1.1" xmlns="http://www.w3.org/2000/svg"
  width="48" height="48">
  <path
    d="M765.5 215.5c0-9.9-6.6-18.1-14.8-18.1H650c-8.1 0-14.8 8.1-14.8 18.1v175.2h130.3V215.5zM678 743V599.7l-42.8-42.8v251.6c0 9.9 6.6 18.1 14.8 18.1h100.8c5.3 0 10-3.5 12.6-8.7l-79.4-63c-3-3-6-6-6-11.9zM407.6 197.5H306.8c-8.1 0-14.8 8.1-14.8 18.1v593c0 9.9 6.6 18.1 14.8 18.1h100.8c8.1 0 14.8-8.1 14.8-18.1v-593c-0.1-10-6.7-18.1-14.8-18.1zM537.7 459.4c-6-6-9-14.9-9-26.9 0-1.6 0.1-3.2 0.3-4.8h-53.7c-6.5 0-11.8 6.5-11.8 14.4v370.1c0 7.9 5.3 14.4 11.8 14.4h106.8c6.5 0 11.8-6.5 11.8-14.4V515.6l-53.2-53.2-3-3zM241.4 572.4H129.8c-5.2 0-9.4 5.2-9.4 11.5v231.2c0 6.3 4.2 11.5 9.4 11.5h111.6c5.2 0 9.4-5.2 9.4-11.5V583.9c-0.1-6.3-4.3-11.5-9.4-11.5z"
    fill="#1296db"></path>
  <path
    d="M695.5 742l-0.2-0.2V592.5L549.9 447.2c-3.2-3.2-3.9-9.8-3.9-14.7 0-14.5 10.1-24.6 24.6-24.6h334.3c14.5 0 24.6 10.1 24.6 24.6 0 9.7-2.5 11.3-4.3 12.5l-1.5 1-146.5 149.6v211.2L695.5 742z"
    fill="#1296db"></path>
</svg>
