<svg t="1608261135164" class="icon" viewBox="0 0 1024 1024" version="1.1" xmlns="http://www.w3.org/2000/svg" p-id="1206" width="48" height="48">
  <path d="M237.85 484.5l-71.7-125.37H862.1L790.4 484.5H237.85z" fill="#1296db" p-id="1207"></path>
  <path d="M844.07 369.59L784.34 474H243.91l-59.73-104.41h659.9m36.05-20.91z m0 0h-732L231.78 495h564.69l83.66-146.29z" fill="#1296db" p-id="1208"></path>
  <path d="M388.64 871.25h240.51v-146.4H388.64z m20.91-125.49h198.69v104.57H409.55zM367.72 683h292.8l94.11-146.28h-481z m281.39-20.91h-270l-67.2-104.46h404.41zM137.67 299h759.12l62.74-146.29H64.47zM883 278.12H150.59L98.32 173.67h829.49z" fill="#1296db" p-id="1209"></path>
</svg>
