<svg width="850" height="850"
     xmlns="http://www.w3.org/2000/svg">
  <g>
    <title>Layer 1</title>
    <path d="m408.93333,285.8c133.59787,0 268.27094,-22.656 337.06667,-66.51733l0,151.85066a21.33333,21.33333 0 1 0 42.66667,0l0,-197.90506c2.7392,-6.97174 4.26666,-14.2336 4.26666,-21.82827c0,-88.23467 -193.1776,-134.4 -384,-134.4c-185.8048,0 -373.76853,43.78453 -383.53066,127.54773a21.13707,21.13707 0 0 0 -4.736,13.25227l0,563.2c0,7.31307 3.6864,13.75573 9.2928,17.59573c23.79946,56.4736 133.0432,110.40427 344.78933,110.40427l0.34133,0a21.4016,21.4016 0 0 0 0.3328,-42.8032c-200.84906,-3.1488 -307.82293,-55.20213 -307.82293,-91.57973c0,-4.77867 -1.62133,-9.12214 -4.26667,-12.672l0,-111.5136c62.1312,46.14826 190.02027,70.8352 311.26187,70.8352l0.49493,0c11.55414,0 21.05174,-9.37814 21.3248,-20.98347c0.26454,-11.78453 -9.0624,-21.70027 -20.8384,-21.9648c-198.30613,-4.54827 -307.97653,-56.92587 -307.97653,-91.40907c0,-4.77866 -1.62133,-9.12213 -4.26667,-12.66346l0,-111.40267c62.1312,46.1824 190.03734,70.69013 311.28747,70.69013l0.46933,0a21.4528,21.4528 0 0 0 21.3248,-21.00053a21.43573,21.43573 0 0 0 -20.87253,-21.9136c-198.28053,-4.25813 -307.9424,-56.77227 -307.9424,-91.45173c0,-4.77014 -1.62133,-9.12214 -4.26667,-12.672l0,-113.00694c65.70667,47.65867 206.22507,72.31147 345.6,72.31147zm0,-226.13333c190.98454,0 318.5408,45.63626 338.5088,82.05653a21.33333,21.33333 0 0 0 -1.44213,7.54347l0,14.19093c-24.064,35.9936 -150.21227,79.67573 -337.06667,79.67573c-208.3584,0 -341.33333,-54.33173 -341.33333,-91.73333s132.97493,-91.73333 341.33333,-91.73333z" fill="#1296db" id="svg_1"/>
    <path d="m810,413.8l-375.46667,0a21.33333,21.33333 0 0 0 -21.33333,21.33333l0,392.53334a21.33333,21.33333 0 0 0 21.33333,21.33333l283.78454,0c6.40853,0 12.4672,-2.87573 16.52906,-7.84213l91.68214,-112.2304a21.38453,21.38453 0 0 0 4.80426,-13.49974l0,-280.2944a21.33333,21.33333 0 0 0 -21.33333,-21.33333zm-21.33333,294.016l-80.46934,98.51733l-252.33066,0l0,-349.86666l332.8,0l0,251.34933z" fill="#1296db" id="svg_2"/>
    <path fill="#1296db" stroke-width="null" stroke-opacity="null" fill-opacity="null" d="m617.224087,679.350495l35.831951,-32.263621l-69.279328,0l-69.279176,0l0,-19.97271l0,-19.97273l68.484405,0c37.666369,0 68.484351,-1.012312 68.484351,-2.24959c0,-1.23725 -14.994864,-15.755886 -33.32188,-32.263615l-33.321986,-30.014059l30.799697,0l30.799584,0l47.03794,42.290462l47.037918,42.290441l-47.12815,42.209525l-47.128135,42.209525l-32.424589,0l-32.424665,0l35.832049,-32.263635l0.000015,0.000007l-0.000001,0z" id="svg_5" stroke="null"/>
  </g>
</svg>
